<?xml version="1.0" encoding="UTF-8"?>
<svg version="1.1" xmlns="http://www.w3.org/2000/svg" width="37" height="37">
<path d="M0 0 C5.23872588 2.43226559 9.39841957 6.79683915 12 12 C12.08308638 13.37548156 12.10736016 14.75485796 12.09765625 16.1328125 C12.09443359 16.93847656 12.09121094 17.74414062 12.08789062 18.57421875 C12.07951172 19.41597656 12.07113281 20.25773437 12.0625 21.125 C12.05798828 21.97449219 12.05347656 22.82398437 12.04882812 23.69921875 C12.03702874 25.79950909 12.01909306 27.8997633 12 30 C10.1875 30.625 10.1875 30.625 8 31 C7.01 30.34 6.02 29.68 5 29 C5.33 27.35 5.66 25.7 6 24 C6.99 23.67 7.98 23.34 9 23 C8.75012426 16.67814387 8.4164709 11.89392721 4 7 C-0.75663491 3.6814175 -5.3699274 3.21440848 -11 4 C-14.35161246 5.38214122 -14.35161246 5.38214122 -17 7 C-17.66 7 -18.32 7 -19 7 C-18.8125 5.1875 -18.8125 5.1875 -18 3 C-12.44608236 -1.16038922 -6.65892588 -0.74734477 0 0 Z " fill="#691C8E" transform="translate(25,0)"/>
<path d="M0 0 C2.475 0.99 2.475 0.99 5 2 C4.67 3.65 4.34 5.3 4 7 C3.01 7.33 2.02 7.66 1 8 C1.81540002 17.47366063 1.81540002 17.47366063 7 25 C11.49727479 27.77772855 16.87999553 27.56344547 22 27 C25.5047765 25.67014431 25.5047765 25.67014431 28 24 C28 25.32 28 26.64 28 28 C23.37043674 31.80193184 18.83590017 31.4964495 13.09765625 31.34765625 C7.51243403 30.72081542 4.70966127 27.92300507 1.1875 23.875 C-2.26321279 19.33977748 -2.18294994 16.04197849 -2.1875 10.5 C-2.19974609 9.71496094 -2.21199219 8.92992187 -2.22460938 8.12109375 C-2.22986254 6.07936274 -2.1222018 4.03807749 -2 2 C-1.34 1.34 -0.68 0.68 0 0 Z " fill="#691C8E" transform="translate(2,6)"/>
<path d="M0 0 C3 0.25 3 0.25 5 2.25 C5.3359375 4.74609375 5.3359375 4.74609375 5.375 7.6875 C5.40335938 8.65558594 5.43171875 9.62367187 5.4609375 10.62109375 C5 13.25 5 13.25 3.14453125 15.14453125 C1 16.25 1 16.25 -1.6875 15.5 C-4 14.25 -4 14.25 -5 13.25 C-5.12487758 11.44072719 -5.17570846 9.62603893 -5.1875 7.8125 C-5.20167969 6.82378906 -5.21585937 5.83507812 -5.23046875 4.81640625 C-4.88194105 0.93534355 -3.81467275 0.3178894 0 0 Z M-2 3.25 C-2 6.22 -2 9.19 -2 12.25 C-0.68 12.25 0.64 12.25 2 12.25 C2 9.61 2 6.97 2 4.25 C0.68 3.92 -0.64 3.59 -2 3.25 Z " fill="#691C8E" transform="translate(13,10.75)"/>
<path d="M0 0 C1.010625 0.0825 2.02125 0.165 3.0625 0.25 C5.0625 3.25 5.0625 3.25 4.8125 5.75 C4.0625 8.25 4.0625 8.25 2.0625 11.25 C3.0525 11.58 4.0425 11.91 5.0625 12.25 C5.0625 13.24 5.0625 14.23 5.0625 15.25 C-1.6875 16.375 -1.6875 16.375 -3.9375 15.25 C-3.26652328 11.05639551 -1.0816606 7.84665648 1.0625 4.25 C-0.9175 4.58 -2.8975 4.91 -4.9375 5.25 C-3.82553359 0.32557733 -3.82553359 0.32557733 0 0 Z " fill="#691C8E" transform="translate(23.9375,10.75)"/>
</svg>
