<?xml version="1.0" encoding="UTF-8"?>
<svg version="1.1" xmlns="http://www.w3.org/2000/svg" width="37" height="37">
<path d="M0 0 C1.59134766 -0.02126953 1.59134766 -0.02126953 3.21484375 -0.04296875 C6.0625 0.1875 6.0625 0.1875 9.0625 2.1875 C8.7325 3.1775 8.4025 4.1675 8.0625 5.1875 C7.36125 5.06890625 6.66 4.9503125 5.9375 4.828125 C0.10477648 4.03563539 -4.19796368 3.80495053 -9.34375 6.89453125 C-13.20636689 10.02817387 -13.84450709 13.35056384 -14.375 18.125 C-14.17087074 22.75784679 -12.70301806 25.47588366 -9.9375 29.1875 C-5.56261425 32.26980587 -1.19242197 33.09037269 4.0625 32.1875 C7.93241511 30.82300802 10.53793373 28.89820268 13 25.5625 C14.42342169 21.04104288 14.31326374 16.88699832 14.0625 12.1875 C15.3825 12.1875 16.7025 12.1875 18.0625 12.1875 C18.58139768 19.10613579 18.89322978 24.82986029 14.59375 30.5625 C10.14692227 35.28158249 6.44991881 36.43933018 0.125 36.75 C-5.72222315 36.5304547 -9.66333766 35.21507605 -13.9375 31.1875 C-18.15444092 26.02174737 -18.56739547 21.59753898 -18.3203125 14.9921875 C-17.42268586 8.41569844 -12.91685961 4.97614318 -7.9375 1.1875 C-5.2264923 -0.16800385 -3.02410831 0.01832793 0 0 Z " fill="#691C8E" transform="translate(18.9375,0.8125)"/>
<path d="M0 0 C0 1.32 0 2.64 0 4 C-1.7578125 5.52734375 -1.7578125 5.52734375 -4.125 6.9375 C-8.05692633 9.37864858 -11.51461083 11.96145559 -15 15 C-14.195625 15.7425 -13.39125 16.485 -12.5625 17.25 C-10.23011409 19.75304829 -9.36465606 20.7180955 -9 24 C-9.99 24.33 -10.98 24.66 -12 25 C-13.82421875 24.00390625 -13.82421875 24.00390625 -15.6875 22.5625 C-16.31011719 22.08941406 -16.93273438 21.61632812 -17.57421875 21.12890625 C-18.27998047 20.57009766 -18.27998047 20.57009766 -19 20 C-19.99 21.32 -20.98 22.64 -22 24 C-23.65 23.67 -25.3 23.34 -27 23 C-25.92598892 20.08482708 -25.22189824 18.22189824 -23 16 C-23.28566879 13.64934822 -23.28566879 13.64934822 -24 11 C-24.33944795 9.00102872 -24.67421616 7.00124361 -25 5 C-23.68 4.67 -22.36 4.34 -21 4 C-20.01 5.98 -19.02 7.96 -18 10 C-17.43152344 9.61328125 -16.86304688 9.2265625 -16.27734375 8.828125 C-3.18811881 0 -3.18811881 0 0 0 Z " fill="#691C8E" transform="translate(37,4)"/>
</svg>
